<svg width="500" height="500" viewBox="0 0 500 500" fill="none" xmlns="http://www.w3.org/2000/svg">
<rect width="500" height="500" fill="#D2DBE3"/>
<path d="M97 200.5C97 192.216 103.716 185.5 112 185.5H156.855C165.139 185.5 171.855 178.784 171.855 170.5V161C171.855 152.716 178.571 146 186.855 146H249.079H317.935C326.219 146 332.935 152.716 332.935 161V170.5C332.935 178.784 339.651 185.5 347.935 185.5H389C397.284 185.5 404 192.216 404 200.5V339.5C404 347.784 397.284 354.5 389 354.5H112C103.716 354.5 97 347.784 97 339.5V265V200.5Z" fill="#96AABE"/>
<circle cx="250" cy="271" r="44" fill="#96AABE" stroke="#D2DBE3" stroke-width="12"/>
</svg>
